PathFileType	4	(X/Y/Z)	Patient4_TMGait_0pt4_01_left_38.trc.trc
DataRate	CameraRate	NumFrames	NumMarkers	Units	OrigDataRate	OrigDataStartFrame	OrigNumFrames
76.923076923077	76.923076923077	4	33	mm	76.923076923077	1	       141
Frame#	Time	Sacral			L.Shoulder			Chest			R.Shoulder			Neck			R.ASIS			L.ASIS			R.Thigh.Superior			R.Thigh.Lateral			R.Thigh.Inferior			R.Patella			L.Thigh.Superior			L.Thigh.Lateral			L.Thigh.Inferior			L.Patella			L.Shank.Superior			L.Shank.Lateral			L.Shank.Inferior			R.Shank.Superior			R.Shank.Lateral			R.Shank.Inferior			R.Heel			R.Midfoot.Superior			R.Midfoot.Lateral			R.Toe			L.Heel			L.Midfoot.Lateral			L.Midfoot.Superior			L.Toe			L.Elbow			L.Wrist			R.Elbow			R.Wrist			
		X1	Y1	Z1	X2	Y2	Z2	X3	Y3	Z3	X4	Y4	Z4	X5	Y5	Z5	X6	Y6	Z6	X7	Y7	Z7	X8	Y8	Z8	X9	Y9	Z9	X10	Y10	Z10	X11	Y11	Z11	X12	Y12	Z12	X13	Y13	Z13	X14	Y14	Z14	X15	Y15	Z15	X16	Y16	Z16	X17	Y17	Z17	X18	Y18	Z18	X19	Y19	Z19	X20	Y20	Z20	X21	Y21	Z21	X22	Y22	Z22	X23	Y23	Z23	X24	Y24	Z24	X25	Y25	Z25	X26	Y26	Z26	X27	Y27	Z27	X28	Y28	Z28	X29	Y29	Z29	X30	Y30	Z30	X31	Y31	Z31	X32	Y32	Z32	X33	Y33	Z33	

1	47.560000000000	817.724820610684	1001.934227565426	532.492003848783	963.910070495929	1434.469486963619	332.536784424605	1079.969184021973	1374.880134355906	487.728751135638	1005.610936014545	1446.568658144055	666.407139190274	954.395178135838	1498.340835360659	488.543487259604	1055.505842783579	946.724989832620	633.865329369571	1020.848154388474	967.715660178292	361.171318953141	1088.040400762260	740.836835907171	600.834298017633	1002.800061705871	633.301110875105	662.451397233232	1073.937534628294	579.239470348736	579.542318999019	1068.517042152311	492.554311475593	584.159747254360	1108.194999208059	782.462802105602	381.449124508906	1058.392114830494	656.273725974940	303.381897791381	1167.553992869276	595.521934336873	354.266227338219	1181.350112628091	507.677956437739	345.821555515836	1117.780091391328	438.698389034192	340.459429506837	975.876936712224	388.828542603768	299.615723290006	976.034527301631	256.388765137275	349.992775912194	1039.807920056615	404.049930996914	590.694690275442	966.781019431271	300.861901284068	649.967671347673	1007.513113483467	205.969295550737	584.907827873867	871.504397101758	42.728273087530	550.813117221210	1041.207143072876	96.595038313851	593.140415566933	951.917730346095	37.094188104960	629.394989906364	1160.573472431883	43.759044354010	625.987512484360	793.512090780720	180.673267855573	399.205028314555	846.522911414103	139.864007049161	313.104970631624	953.210770166997	151.047095351654	327.284430886481	1032.475042797071	42.638433879321	288.902300025037	932.531829842854	1077.682938794301	230.754754950901	1009.264622826467	828.028499971196	219.019664624257	1080.586010070755	1118.382454922476	812.865870569088	1315.067057088100	1016.357136465074	772.037893929613	
2	47.573000000000	816.479561888466	1002.997394314459	534.903875560057	962.344476893609	1434.576240202355	333.907024459606	1080.109195586307	1374.696590846789	487.596252983591	1008.323789652235	1447.032354184582	666.967606073832	955.165386933369	1498.486890271386	489.886622553094	1054.949956733318	946.294745469628	633.962734690872	1018.035402198190	968.362142887023	361.647328782562	1085.425685942221	740.131355412434	600.420479944941	999.764323380556	633.250806762914	662.847757576467	1069.609253151765	578.675745677048	579.392926550618	1063.686345620586	492.256416123242	584.130725977994	1106.199870198233	784.400090942017	381.986729212976	1057.454629672367	657.906941237152	303.993259383246	1166.838421546245	597.935216348080	355.272448738999	1181.907026968061	511.243589660809	346.534008453812	1121.625036982867	441.179413456337	340.379290619974	983.065027257811	384.160724949819	299.767821355834	991.260056758423	251.987035772879	348.681389782695	1034.769983063505	403.863387939045	590.746825595164	961.786541498093	300.783860330273	650.193333220384	1002.125985476223	205.907303090373	585.018698338617	865.911886695234	42.740403267441	550.858590137757	1035.597907195388	96.516477626310	593.093366924614	946.367210503508	37.044332663098	629.486027246963	1155.018867614911	43.774061600783	626.018579999002	814.960286704766	165.240777119835	398.283021971489	869.189545088740	128.991036900610	311.311700240851	974.431568637061	146.540439237910	324.983903974456	1059.456568117176	44.399478755723	284.644307145737	924.294252088463	1078.013286461951	234.548608751969	993.765862610734	826.623393805289	224.454154200153	1089.554898447829	1121.261122114910	813.213730527162	1327.003214541862	1033.787536228382	767.778805605776	
3	47.586000000000	815.231564607438	1004.026371496677	537.271441277636	960.806853747729	1434.668465263248	335.244949025181	1080.255703585232	1374.475226433825	487.439273326396	1011.029230071712	1447.446300823419	667.500592599758	955.933503742115	1498.613408847213	491.176700053332	1054.397719128476	945.846072801908	634.021820015494	1015.239578580207	968.960577200364	362.078728485521	1082.837677103064	739.428683942458	599.979588641427	996.789685460012	633.183883231419	663.227743736244	1065.353553528500	578.110982919155	579.233572226989	1058.933459566905	491.949107174949	584.103341025072	1104.151991269035	786.225320071010	382.528542500933	1056.443262647830	659.455853610420	304.584738315038	1165.948175635731	600.203476764203	356.383776052618	1182.321850543675	514.712609263631	347.310220397385	1125.337382163090	443.607380928712	340.374171378776	990.313063496098	379.460345896668	299.811687130394	1006.458535419117	247.684085195932	347.402275054480	1029.809287320995	403.663435671974	590.799848118544	956.857869502337	300.696257001516	650.415878633570	996.794446686764	205.833283332071	585.126807908422	860.366023269581	42.746297519001	550.911522384326	1030.032949225242	96.441185459274	593.051450079518	940.857313388021	36.993408910587	629.573221205951	1149.505023836748	43.786703711296	626.047801143492	836.479519113395	150.019712028406	397.177860119677	891.999644976431	118.319544071224	309.459131408939	995.671146581749	142.202787975138	322.782390946768	1086.414096912268	46.396059333118	280.722298058220	916.116865597177	1078.354387333296	238.321567391711	978.436872758648	825.297172419674	229.827746101060	1098.447519898730	1124.077318097224	813.490319614387	1338.636833997727	1051.052105065184	763.490808308713	
4	47.599000000000	813.994695111120	1004.988090992198	539.547540768102	959.324467361837	1434.736139899738	336.512780745616	1080.411632355664	1374.187492989006	487.230162031957	1013.710208192272	1447.768206730334	667.972194517659	956.696386149338	1498.704498703466	492.360771309209	1053.855648668592	945.369483459462	634.002509299033	1012.484302500234	969.471197940491	362.418536089960	1080.307323974802	738.729911652015	599.495312421213	993.925178951415	633.088447589759	663.574972623190	1061.232196082910	577.543748926501	579.056360325666	1054.321331173978	491.624897104446	584.075803987875	1101.999940575797	787.828721003973	383.072104027293	1055.282999160738	660.838159396412	305.133690949121	1164.735694001102	602.188895555007	357.651047687612	1182.450959839232	517.981842777955	348.191578556082	1128.775626105531	445.928988223409	340.494163960066	997.625122910312	374.742036732405	299.667577921753	1021.525501252951	243.609320555667	346.186871320469	1024.987047600575	403.441648383846	590.851907512980	952.046506127697	300.593765103520	650.631931359263	991.561117975693	205.738493317819	585.228871886952	854.901160804851	42.742866135634	550.976772157819	1024.545438494705	96.371611685622	593.019304843668	935.418406444636	36.941694682768	629.654189908030	1144.062051858804	43.793923594635	626.073877615401	858.022943824237	135.312470576859	395.765955179514	914.954188081662	108.101636926198	307.530669700135	1016.838445327623	138.216447088204	320.773777606579	1113.175140307503	48.816361866604	277.441703621001	908.077782954437	1078.724918919989	242.035828728594	963.468314580346	824.131225360769	235.061405911656	1107.169488261571	1126.764060172691	813.604047272147	1349.653465677542	1067.945673184440	759.144174311723	
